<svg version="1.1" xmlns="http://www.w3.org/2000/svg" xmlns:xlink="http://www.w3.org/1999/xlink" x="0px" y="0px" viewBox="0 0 512 500" enable-background="new 0 0 512 500" xml:space="preserve">
<path fill="#FFFFFF" d="M214.4,30.2h83.6v14.1h30.2v-16c0-15.6-12.6-28.2-28.2-28.2h-87.5c-15.5,0-28.2,12.7-28.2,28.2v16h30.2V30.2z"/>
<path fill="#FFFFFF" d="M397.8,163.8H114.5c-7.8,0-13.9,6.6-13.2,14.4l23.7,292.9c1.3,16.3,15,28.9,31.3,28.9H356c16.4,0,30-12.6,31.3-28.9
	l23.7-292.9C411.7,170.4,405.6,163.8,397.8,163.8z M183.1,468.8c-0.3,0-0.6,0-0.9,0c-7.9,0-14.6-6.2-15-14.2l-14.8-240.4
	c-0.5-8.3,5.8-15.5,14.1-16c8.3-0.5,15.5,5.8,16,14.1l14.8,240.4C197.7,461.1,191.4,468.2,183.1,468.8z M271.4,453.7
	c0,8.3-6.8,15.1-15.1,15.1s-15.1-6.8-15.1-15.1V213.3c0-8.3,6.8-15.1,15.1-15.1c8.3,0,15.1,6.8,15.1,15.1V453.7z M360,214.1
	l-14.2,240.4c-0.5,8-7.1,14.2-15,14.2c-0.3,0-0.6,0-0.9,0c-8.3-0.5-14.7-7.6-14.2-16l14.2-240.4c0.5-8.3,7.6-14.7,15.9-14.2
	C354.2,198.7,360.5,205.8,360,214.1z"/>
<path fill="#FFFFFF" d="M450,117.2l-9.9-29.7c-2.6-7.8-9.9-13.1-18.2-13.1H90.4c-8.3,0-15.6,5.3-18.2,13.1l-9.9,29.7c-1.9,5.7,0.6,11.6,5.2,14.5
	c1.9,1.2,4.1,1.9,6.6,1.9h364.1c2.5,0,4.7-0.7,6.6-1.9C449.4,128.8,451.9,123,450,117.2z"/>
</svg>
