<svg version="1.1" xmlns="http://www.w3.org/2000/svg" xmlns:xlink="http://www.w3.org/1999/xlink" x="0px" y="0px" viewBox="0 0 479 500" enable-background="new 0 0 479 500" xml:space="preserve">
<path class="b-list-type-block" fill="#413833" fill-opacity="0.1" d="M-4.3,0H286l94.3,94.6V500H-4.3V0z"/>
<path class="b-list-type-line" fill="#AB1E2C" d="M212,181.7c8.8,0,16.5,2.3,23.1,6.8c6.8,4.5,12,10.9,15.7,19.1c3.8,8.2,5.7,17.5,5.7,28
	c0,15.7-4,28.3-11.9,37.9c-7.8,9.6-18.1,14.4-31.1,14.4h-21.1c-0.8,0-1.2,0.4-1.2,1.3v72.7c0,0.9-0.3,1.7-1,2.4
	c-0.5,0.5-1.2,0.8-2,0.8h-22.9c-0.8,0-1.6-0.3-2.2-0.8c-0.5-0.7-0.7-1.5-0.7-2.4V184.8c0-0.9,0.2-1.6,0.7-2.1c0.7-0.7,1.4-1,2.2-1
	H212z M207.3,264c6.1,0,11-2.4,14.7-7.3c3.8-5.1,5.7-11.9,5.7-20.4c0-8.7-1.9-15.6-5.7-20.7c-3.6-5.2-8.5-7.8-14.7-7.8h-14.9
	c-0.8,0-1.2,0.4-1.2,1.3v53.6c0,0.9,0.4,1.3,1.2,1.3H207.3z"/>
<path class="b-list-type-line" fill="#AB1E2C" d="M279.2,365c-0.8,0-1.6-0.3-2.2-0.8c-0.5-0.7-0.7-1.5-0.7-2.4V185.1c0-0.9,0.2-1.6,0.7-2.1
	c0.7-0.7,1.4-1,2.2-1h42.5c14.3,0,25.6,4.5,34.1,13.6c8.6,9.1,12.9,21.2,12.9,36.4V315c0,15.2-4.3,27.3-12.9,36.4
	c-8.5,9.1-19.8,13.6-34.1,13.6H279.2z M305,337.5c0,0.9,0.4,1.3,1.2,1.3l14.9-0.3c5.5,0,9.9-2.3,13.2-6.8c3.5-4.7,5.3-10.9,5.5-18.6
	v-79.5c0-7.8-1.7-14-5.2-18.6c-3.3-4.7-7.9-7.1-13.7-7.1h-14.7c-0.8,0-1.2,0.4-1.2,1.3V337.5z"/>
<path class="b-list-type-line" fill="#AB1E2C" d="M479,204.9c0,0.9-0.3,1.7-1,2.4c-0.5,0.5-1.2,0.8-2,0.8h-53.4c-0.8,0-1.2,0.4-1.2,1.3v49.4
	c0,0.9,0.4,1.3,1.2,1.3h31.6c0.8,0,1.5,0.3,2,1c0.7,0.5,1,1.2,1,2.1v20.1c0,0.9-0.3,1.7-1,2.4c-0.5,0.5-1.2,0.8-2,0.8h-31.6
	c-0.8,0-1.2,0.4-1.2,1.3v74c0,0.9-0.3,1.7-1,2.4c-0.5,0.5-1.2,0.8-2,0.8h-22.9c-0.8,0-1.6-0.3-2.2-0.8c-0.5-0.7-0.7-1.5-0.7-2.4
	V185.1c0-0.9,0.2-1.6,0.7-2.1c0.7-0.7,1.4-1,2.2-1H476c0.8,0,1.5,0.3,2,1c0.7,0.5,1,1.2,1,2.1V204.9z"/>
</svg>