<svg width="196" height="105" viewBox="0 0 196 105" fill="none" xmlns="http://www.w3.org/2000/svg">
<g filter="url(#filter0_d)">
<path d="M20 10H176V65.6681H30.6805L20 74.4066V10Z" fill="white"/>
</g>
<g clip-path="url(#clip0)">
<path d="M38.125 39.5718V25.0059H52.6674" fill="#AD1923"/>
<path d="M63.3042 25.0059V39.5718H48.7383" fill="#AD1923"/>
<path d="M39.6075 49.8069V46.889H38.525V49.8069H38.125V46.5596H39.984V49.8069" fill="#4A4A49"/>
<path d="M43.1833 47.5244C43.1833 47.642 43.1598 47.7597 43.1362 47.8773C43.1127 47.995 43.0421 48.0891 42.9715 48.1832C42.9009 48.2774 42.8068 48.348 42.6891 48.395C42.5715 48.4421 42.4303 48.4656 42.2656 48.4656H41.7008V49.7834H41.3008V46.5596H42.2185C42.5244 46.5596 42.7597 46.6302 42.9244 46.7949C43.0892 46.9596 43.1833 47.1949 43.1833 47.5244ZM42.7833 47.5244C42.7833 47.3361 42.7362 47.1949 42.6421 47.0773C42.5479 46.9596 42.4068 46.9125 42.2185 46.9125H41.7008V48.1362H42.242C42.3597 48.1362 42.4303 48.1126 42.5244 48.0891C42.595 48.0656 42.6656 48.0185 42.6891 47.9479C42.7362 47.9009 42.7597 47.8303 42.7833 47.7597C42.7833 47.6891 42.7833 47.6185 42.7833 47.5244Z" fill="#4A4A49"/>
<path d="M46.1014 48.8659C46.1014 49.0071 46.0778 49.1483 46.0308 49.266C45.9837 49.3836 45.9131 49.4777 45.8425 49.5719C45.7484 49.666 45.6543 49.7366 45.5366 49.7601C45.4189 49.8072 45.3013 49.8307 45.1601 49.8307C44.9954 49.8307 44.8307 49.8072 44.713 49.7366C44.5953 49.6895 44.5012 49.5954 44.4071 49.5013C44.3365 49.4071 44.2659 49.2895 44.2424 49.1718C44.2188 49.0542 44.1953 48.913 44.1953 48.7718V47.454C44.1953 47.3364 44.2188 47.2423 44.2424 47.1246C44.2659 47.0069 44.3365 46.9128 44.4071 46.8187C44.4777 46.7246 44.5718 46.654 44.713 46.5834C44.8307 46.5363 44.9718 46.4893 45.1601 46.4893C45.3248 46.4893 45.466 46.5128 45.5837 46.5834C45.7013 46.6304 45.7954 46.7246 45.8896 46.7952C45.9602 46.8893 46.0308 46.9834 46.0543 47.1011C46.1014 47.2187 46.1014 47.3364 46.1014 47.454V48.8659ZM45.7013 47.5011C45.7013 47.454 45.7013 47.3834 45.6778 47.3129C45.6543 47.2423 45.6307 47.1717 45.5837 47.1246C45.5366 47.054 45.4895 47.0069 45.4189 46.9599C45.3483 46.9128 45.2542 46.8893 45.1366 46.8893C45.0189 46.8893 44.9248 46.9128 44.8542 46.9599C44.7836 47.0069 44.713 47.054 44.6895 47.1246C44.6424 47.1952 44.6189 47.2423 44.5953 47.3364C44.5718 47.407 44.5718 47.4776 44.5718 47.5246V48.8189C44.5718 48.913 44.5718 49.0071 44.5953 49.0777C44.6189 49.1718 44.6424 49.2424 44.6895 49.2895C44.7365 49.3601 44.8071 49.4071 44.8777 49.4307C44.9483 49.4542 45.0424 49.4777 45.1366 49.4777C45.2072 49.4777 45.2778 49.4542 45.3484 49.4307C45.4189 49.4071 45.466 49.3601 45.5131 49.313C45.5601 49.266 45.6072 49.1954 45.6307 49.1248C45.6543 49.0542 45.6778 48.9836 45.6778 48.8895V47.5011H45.7013Z" fill="#4A4A49"/>
<path d="M47.3047 49.8069V46.5596H47.7047V49.0304H47.7283L48.1989 48.0656L48.9754 46.5596H49.3519V49.8069H48.9754V47.3361H48.9519L48.5048 48.2303L47.6812 49.8069" fill="#4A4A49"/>
<path d="M51.3476 49.855C51.2299 49.855 51.1123 49.8315 50.9946 49.808C50.877 49.7844 50.7828 49.7374 50.7123 49.6668C50.6181 49.5962 50.5711 49.5256 50.5005 49.455C50.4534 49.3609 50.4063 49.2667 50.3828 49.1491L50.7593 49.0079C50.7828 49.1726 50.8534 49.2903 50.9711 49.3844C51.0888 49.455 51.2064 49.5021 51.3476 49.5021C51.5123 49.5021 51.63 49.455 51.7476 49.3609C51.8418 49.2667 51.9123 49.102 51.9123 48.8902C51.9123 48.7255 51.8653 48.5843 51.7947 48.4667C51.7241 48.349 51.5829 48.302 51.4182 48.302H51.1358V47.949H51.4182C51.5829 47.949 51.7006 47.9019 51.7712 47.7843C51.8418 47.6901 51.8888 47.549 51.8888 47.3842C51.8888 47.2195 51.8418 47.0783 51.7476 47.0077C51.6535 46.9371 51.5358 46.8901 51.3711 46.8901C51.2299 46.8901 51.0888 46.9371 50.9946 47.0313C50.9005 47.1254 50.8299 47.2195 50.8064 47.3607L50.4534 47.243C50.5005 47.0313 50.6181 46.843 50.7828 46.7254C50.9476 46.6077 51.1593 46.5371 51.3947 46.5371C51.7006 46.5371 51.9123 46.6077 52.0771 46.7489C52.2183 46.8901 52.3124 47.1019 52.3124 47.3842C52.3124 47.4548 52.3124 47.5019 52.2889 47.5725C52.2653 47.6431 52.2653 47.7137 52.2183 47.7843C52.1947 47.8549 52.1477 47.9255 52.1006 47.9725C52.0535 48.0196 51.9829 48.0666 51.9123 48.1137V48.1372C52.0065 48.1843 52.0771 48.2314 52.1241 48.2784C52.1712 48.349 52.2183 48.3961 52.2418 48.4667C52.2653 48.5373 52.2889 48.6079 52.2889 48.6785C52.2889 48.7491 52.3124 48.8196 52.3124 48.8902C52.3124 49.1726 52.2418 49.4079 52.0771 49.5962C51.9123 49.7609 51.6535 49.855 51.3476 49.855Z" fill="#4A4A49"/>
<path d="M55.4215 48.8892C55.4215 49.1951 55.3509 49.4304 55.1862 49.5951C55.0214 49.7598 54.8097 49.8304 54.5508 49.8304H53.5625V46.5596H54.5038C54.8097 46.5596 55.0214 46.6302 55.1626 46.7949C55.3038 46.9596 55.3744 47.1479 55.3744 47.4302C55.3744 47.5714 55.3509 47.7126 55.2803 47.8303C55.2332 47.9479 55.1156 48.042 54.9509 48.1362V48.1597C55.045 48.1832 55.1156 48.2068 55.1626 48.2774C55.2332 48.3244 55.2803 48.395 55.3038 48.4421C55.3509 48.5127 55.3744 48.5833 55.3744 48.6774C55.4215 48.7009 55.4215 48.795 55.4215 48.8892ZM53.939 46.9125V47.9479H54.4567C54.6449 47.9479 54.7861 47.9009 54.8567 47.8067C54.9509 47.7126 54.9744 47.5714 54.9744 47.4302C54.9744 47.2655 54.9273 47.1479 54.8567 47.0537C54.7626 46.9596 54.6449 46.9125 54.4567 46.9125H53.939ZM53.939 48.3009V49.4539H54.5038C54.5979 49.4539 54.692 49.4304 54.7626 49.4069C54.8332 49.3833 54.8803 49.3363 54.9273 49.2892C54.9744 49.2421 54.9979 49.1716 55.0214 49.101C55.045 49.0304 55.045 48.9598 55.045 48.8656C55.045 48.7009 54.9979 48.5597 54.9273 48.4656C54.8332 48.3715 54.7155 48.3009 54.5038 48.3009H53.939Z" fill="#4A4A49"/>
<path d="M58.4568 48.8659C58.4568 49.0071 58.4333 49.1483 58.3862 49.266C58.3392 49.3836 58.2686 49.4777 58.198 49.5719C58.1039 49.666 58.0097 49.7366 57.8921 49.7601C57.7744 49.8072 57.6568 49.8307 57.5156 49.8307C57.3508 49.8307 57.1861 49.8072 57.0685 49.7366C56.9508 49.6895 56.8567 49.5954 56.7626 49.5013C56.692 49.4071 56.6214 49.2895 56.5978 49.1718C56.5508 49.0542 56.5508 48.913 56.5508 48.7718V47.454C56.5508 47.3364 56.5743 47.2423 56.5978 47.1246C56.6214 47.0069 56.692 46.9128 56.7626 46.8187C56.8332 46.7246 56.9273 46.654 57.0685 46.5834C57.1861 46.5363 57.3273 46.4893 57.5156 46.4893C57.6803 46.4893 57.8215 46.5128 57.9391 46.5834C58.0568 46.6304 58.1509 46.7246 58.245 46.7952C58.3156 46.8893 58.3862 46.9834 58.4098 47.1011C58.4568 47.2187 58.4568 47.3364 58.4568 47.454V48.8659ZM58.0568 47.5011C58.0568 47.454 58.0568 47.3834 58.0333 47.3129C58.0097 47.2423 57.9862 47.1717 57.9391 47.1246C57.8921 47.054 57.845 47.0069 57.7744 46.9599C57.7038 46.9128 57.6097 46.8893 57.492 46.8893C57.3744 46.8893 57.2803 46.9128 57.2097 46.9599C57.1391 47.0069 57.092 47.054 57.0449 47.1246C56.9979 47.1717 56.9508 47.2423 56.9508 47.3129C56.9273 47.3834 56.9273 47.454 56.9273 47.5011V48.7953C56.9273 48.8895 56.9273 48.9836 56.9508 49.0542C56.9743 49.1483 56.9979 49.2189 57.0449 49.266C57.092 49.3365 57.1626 49.3836 57.2332 49.4071C57.3038 49.4307 57.3979 49.4542 57.492 49.4542C57.5626 49.4542 57.6332 49.4307 57.7038 49.4071C57.7744 49.3836 57.8215 49.3365 57.8685 49.2895C57.9156 49.2424 57.9627 49.1718 57.9862 49.1012C58.0097 49.0306 58.0333 48.96 58.0333 48.8659V47.5011H58.0568Z" fill="#4A4A49"/>
<path d="M59.7983 50.466H59.4453V49.5012L59.6336 49.4541C59.7042 49.407 59.7512 49.3365 59.7983 49.2659C59.8453 49.1953 59.8689 49.1011 59.8924 48.96C59.9159 48.8423 59.9395 48.6776 59.9395 48.5129C59.9395 48.3246 59.963 48.1128 59.963 47.854L60.0101 46.5127H61.7514C61.7514 47.0069 61.7514 47.4775 61.7514 47.9716C61.7514 48.4658 61.7514 48.9364 61.7514 49.4306H61.9867V50.4189H61.6102V49.76H59.7748L59.7983 50.466ZM61.3513 49.4776V46.8892H60.363L60.316 47.9952C60.2924 48.3481 60.2924 48.654 60.2689 48.8894C60.2454 49.1247 60.1748 49.3129 60.0807 49.4541H61.3513V49.4776Z" fill="#4A4A49"/>
<path d="M64.8786 49.2197C64.8315 49.4315 64.7139 49.5727 64.5492 49.6903C64.3844 49.808 64.1962 49.855 63.9609 49.855C63.8197 49.855 63.6785 49.8315 63.5608 49.7844C63.4432 49.7374 63.3491 49.6668 63.2549 49.5727C63.1843 49.4785 63.1138 49.3844 63.0667 49.2667C63.0196 49.1491 62.9961 49.0079 62.9961 48.8667V47.5019C62.9961 47.3607 63.0196 47.243 63.0667 47.1254C63.1138 47.0077 63.1608 46.9136 63.2549 46.8195C63.3255 46.7254 63.4432 46.6548 63.5608 46.6077C63.6785 46.5606 63.8197 46.5371 63.9609 46.5371C64.1727 46.5371 64.3844 46.5842 64.5256 46.7018C64.6903 46.8195 64.808 46.9607 64.8551 47.1725L64.4786 47.3136C64.455 47.196 64.3844 47.1019 64.2903 47.0313C64.1962 46.9607 64.0785 46.9136 63.9373 46.9136C63.8432 46.9136 63.7726 46.9371 63.702 46.9607C63.6314 46.9842 63.5844 47.0313 63.5373 47.0783C63.4903 47.1254 63.4432 47.196 63.4197 47.2666C63.3961 47.3372 63.3726 47.4078 63.3726 47.4784V48.8667C63.3726 48.9373 63.3961 49.0079 63.4197 49.102C63.4432 49.1726 63.4903 49.2432 63.5373 49.2903C63.5844 49.3373 63.6314 49.3844 63.702 49.4315C63.7726 49.455 63.8432 49.4785 63.9373 49.4785C64.0785 49.4785 64.1962 49.4315 64.2903 49.3609C64.3844 49.2903 64.455 49.1962 64.4786 49.0785" fill="#4A4A49"/>
<path d="M66.8326 46.9125V49.8069H66.4326V46.9125H65.7031V46.5596H67.5621V46.9125" fill="#4A4A49"/>
<path d="M70.4566 48.8892C70.4566 49.1951 70.386 49.4304 70.2213 49.5951C70.0566 49.7598 69.8448 49.8304 69.586 49.8304H68.5977V46.5596H69.5389C69.8448 46.5596 70.0566 46.6302 70.1978 46.7949C70.339 46.9596 70.4096 47.1479 70.4096 47.4302C70.4096 47.5714 70.386 47.7126 70.3154 47.8303C70.2684 47.9479 70.1507 48.042 69.986 48.1362V48.1597C70.0801 48.1832 70.1507 48.2068 70.1978 48.2774C70.2684 48.3244 70.3154 48.395 70.339 48.4421C70.386 48.5127 70.4096 48.5833 70.4096 48.6774C70.4566 48.7009 70.4566 48.795 70.4566 48.8892ZM68.9742 46.9125V47.9479H69.4918C69.6801 47.9479 69.8213 47.9009 69.8919 47.8067C69.986 47.7126 70.0095 47.5714 70.0095 47.4302C70.0095 47.2655 69.9625 47.1479 69.8919 47.0537C69.7978 46.9596 69.6801 46.9125 69.4918 46.9125H68.9742ZM68.9742 48.3009V49.4539H69.5389C69.633 49.4539 69.7272 49.4304 69.7978 49.4069C69.8684 49.3833 69.9154 49.3363 69.9625 49.2892C70.0095 49.2421 70.0331 49.1716 70.0566 49.101C70.0801 49.0304 70.0801 48.9598 70.0801 48.8656C70.0801 48.7009 70.0331 48.5597 69.9625 48.4656C69.8684 48.3715 69.7507 48.3009 69.5389 48.3009H68.9742Z" fill="#4A4A49"/>
<path d="M71.6797 49.8069V46.5596H73.3975V46.9125H72.0562V47.995H73.2092V48.348H72.0562V49.4304H73.3975V49.8069" fill="#4A4A49"/>
<path d="M75.9864 49.8069V48.3244H74.9039V49.8069H74.5039V46.5596H74.9039V47.995H75.9864V46.5596H76.3864V49.8069" fill="#4A4A49"/>
<path d="M79.2091 49.8069V48.3244H78.1032V49.8069H77.7031V46.5596H78.1032V47.995H79.2091V46.5596H79.5856V49.8069" fill="#4A4A49"/>
<path d="M82.7146 48.8659C82.7146 49.0071 82.6911 49.1483 82.644 49.266C82.597 49.3836 82.5264 49.4777 82.4558 49.5719C82.3617 49.666 82.2675 49.7366 82.1499 49.7601C82.0322 49.8072 81.9146 49.8307 81.7734 49.8307C81.6087 49.8307 81.4439 49.8072 81.3263 49.7366C81.2086 49.6895 81.1145 49.5954 81.0204 49.5013C80.9498 49.4071 80.8792 49.2895 80.8557 49.1718C80.8321 49.0542 80.8086 48.913 80.8086 48.7718V47.454C80.8086 47.3364 80.8321 47.2423 80.8557 47.1246C80.8792 47.0069 80.9498 46.9128 81.0204 46.8187C81.091 46.7246 81.1851 46.654 81.3263 46.5834C81.4439 46.5363 81.5851 46.4893 81.7734 46.4893C81.9381 46.4893 82.0793 46.5128 82.1969 46.5834C82.3146 46.6304 82.4087 46.7246 82.5028 46.7952C82.5734 46.8893 82.644 46.9834 82.6676 47.1011C82.7146 47.2187 82.7146 47.3364 82.7146 47.454V48.8659ZM82.3146 47.5011C82.3146 47.454 82.3146 47.3834 82.2911 47.3129C82.2675 47.2423 82.244 47.1717 82.1969 47.1246C82.1499 47.054 82.1028 47.0069 82.0322 46.9599C81.9616 46.9128 81.8675 46.8893 81.7498 46.8893C81.6322 46.8893 81.5381 46.9128 81.4675 46.9599C81.3969 47.0069 81.3498 47.054 81.3028 47.1246C81.2557 47.1952 81.2322 47.2423 81.2086 47.3364C81.1851 47.407 81.1851 47.4776 81.1851 47.5246V48.8189C81.1851 48.913 81.1851 49.0071 81.2086 49.0777C81.2322 49.1718 81.2557 49.2424 81.3028 49.2895C81.3498 49.3601 81.4204 49.4071 81.491 49.4307C81.5616 49.4542 81.6557 49.4777 81.7498 49.4777C81.8204 49.4777 81.891 49.4542 81.9616 49.4307C82.0322 49.4071 82.0793 49.3601 82.1263 49.313C82.1734 49.266 82.2205 49.1954 82.244 49.1248C82.2675 49.0542 82.2911 48.9836 82.2911 48.8895V47.5011H82.3146Z" fill="#4A4A49"/>
<path d="M85.1652 48.4424H83.8945V48.7718H85.1652V48.4424Z" fill="#4A4A49"/>
<path d="M86.3867 49.8069V46.5596H86.7632V49.0304H86.7868L87.2809 48.0656L88.0574 46.5596H88.4339V49.8069H88.0339V47.3361H88.0104L87.5633 48.2303L86.7632 49.8069" fill="#4A4A49"/>
<path d="M91.2129 49.8069V48.3244H90.107V49.8069H89.7305V46.5596H90.107V47.995H91.2129V46.5596H91.613V49.8069" fill="#4A4A49"/>
<path d="M94.2718 46.5596H94.6719V47.995H94.9778C95.0248 47.995 95.0719 47.995 95.1189 47.9715C95.166 47.9715 95.2366 47.9479 95.2837 47.9009C95.3307 47.8773 95.3778 47.8303 95.4249 47.7597C95.4719 47.6891 95.4955 47.6185 95.5425 47.5008L95.8014 46.5596H96.1779L95.919 47.5244C95.872 47.6891 95.8249 47.8067 95.7543 47.9244C95.6837 48.042 95.5896 48.1126 95.4955 48.1362C95.6366 48.1832 95.7308 48.2538 95.8014 48.3715C95.872 48.4891 95.919 48.6068 95.9661 48.7715L96.2485 49.8069H95.8484L95.5896 48.8186C95.566 48.7009 95.519 48.6303 95.4955 48.5597C95.4484 48.4891 95.4013 48.4421 95.3543 48.4185C95.3072 48.3715 95.2601 48.348 95.1895 48.348C95.1425 48.3244 95.0719 48.3244 95.0248 48.3244H94.6954V49.8069H94.2954V48.3244H93.9659C93.8953 48.3244 93.8483 48.3244 93.8012 48.348C93.7541 48.3715 93.6835 48.395 93.6365 48.4185C93.5894 48.4656 93.5423 48.5127 93.4953 48.5597C93.4482 48.6303 93.4247 48.7009 93.4012 48.8186L93.1423 49.8069H92.7188L93.0011 48.7715C93.0482 48.6068 93.0953 48.4656 93.1658 48.3715C93.2364 48.2538 93.3306 48.1832 93.4718 48.1362C93.3541 48.1126 93.26 48.042 93.2129 47.9244C93.1423 47.8067 93.0953 47.6891 93.0482 47.5244L92.7893 46.5596H93.1658L93.4247 47.5008C93.4482 47.6185 93.4953 47.6891 93.5423 47.7597C93.5894 47.8303 93.6365 47.8773 93.6835 47.9009C93.7306 47.9244 93.7777 47.9479 93.8483 47.9715C93.8953 47.9715 93.9424 47.995 94.013 47.995H94.3189" fill="#4A4A49"/>
<path d="M97.3047 49.8069V46.5596H97.6812V49.0304H97.7047L98.1989 48.0656L98.9754 46.5596H99.3519V49.8069H98.9519V47.3361H98.9283L98.4813 48.2303L97.6812 49.8069" fill="#4A4A49"/>
<path d="M102.131 49.8069V48.3244H101.025V49.8069H100.648V46.5596H101.025V47.995H102.131V46.5596H102.531V49.8069" fill="#4A4A49"/>
<path d="M103.848 49.8069V46.5596H104.224V49.0304H104.248L104.742 48.0656L105.518 46.5596H105.895V49.8069H105.495V47.3361H105.471L105.024 48.2303L104.224 49.8069" fill="#4A4A49"/>
<path d="M109.07 47.5244C109.07 47.642 109.046 47.7597 109.023 47.8773C108.999 47.995 108.929 48.0891 108.858 48.1832C108.788 48.2774 108.694 48.348 108.576 48.395C108.458 48.4421 108.317 48.4656 108.152 48.4656H107.588V49.7834H107.188V46.5596H108.105C108.411 46.5596 108.646 46.6302 108.811 46.7949C108.976 46.9596 109.07 47.1949 109.07 47.5244ZM108.67 47.5244C108.67 47.3361 108.623 47.1949 108.529 47.0773C108.435 46.9596 108.293 46.9125 108.105 46.9125H107.588V48.1362H108.129C108.246 48.1362 108.317 48.1126 108.411 48.0891C108.482 48.0656 108.529 48.0185 108.576 47.9479C108.623 47.9009 108.646 47.8303 108.67 47.7597C108.67 47.6891 108.67 47.6185 108.67 47.5244Z" fill="#4A4A49"/>
<path d="M110.152 49.8069V46.5596H110.552V49.0304H110.576L111.047 48.0656L111.823 46.5596H112.2V49.8069H111.8V47.3361L111.352 48.2303L110.529 49.8069" fill="#4A4A49"/>
<path d="M115.002 49.8069V48.3244H113.896V49.8069H113.496V46.5596H113.896V47.995H115.002V46.5596H115.379V49.8069" fill="#4A4A49"/>
<path d="M117.095 46.9125V49.8069H116.695V46.5596H118.39V46.9125" fill="#4A4A49"/>
<path d="M121.285 48.8659C121.285 49.0071 121.261 49.1483 121.214 49.266C121.167 49.3836 121.097 49.4777 121.026 49.5719C120.932 49.666 120.838 49.7366 120.72 49.7601C120.603 49.8072 120.485 49.8307 120.344 49.8307C120.179 49.8307 120.014 49.8072 119.897 49.7366C119.779 49.6895 119.685 49.5954 119.591 49.5013C119.52 49.4071 119.45 49.2895 119.426 49.1718C119.402 49.0542 119.379 48.913 119.379 48.7718V47.454C119.379 47.3364 119.402 47.2423 119.426 47.1246C119.45 47.0069 119.52 46.9128 119.591 46.8187C119.661 46.7246 119.755 46.654 119.897 46.5834C120.014 46.5363 120.155 46.4893 120.344 46.4893C120.508 46.4893 120.65 46.5128 120.767 46.5834C120.885 46.6304 120.979 46.7246 121.073 46.7952C121.144 46.8893 121.214 46.9834 121.238 47.1011C121.285 47.2187 121.285 47.3364 121.285 47.454V48.8659ZM120.885 47.5011C120.885 47.454 120.885 47.3834 120.861 47.3129C120.838 47.2423 120.814 47.1717 120.767 47.1246C120.72 47.054 120.673 47.0069 120.603 46.9599C120.532 46.9128 120.438 46.8893 120.32 46.8893C120.203 46.8893 120.108 46.9128 120.038 46.9599C119.967 47.0069 119.897 47.054 119.873 47.1246C119.826 47.1952 119.802 47.2423 119.779 47.3364C119.755 47.407 119.755 47.4776 119.755 47.5246V48.8189C119.755 48.913 119.755 49.0071 119.779 49.0777C119.802 49.1718 119.826 49.2424 119.873 49.2895C119.92 49.3601 119.991 49.4071 120.061 49.4307C120.132 49.4542 120.226 49.4777 120.32 49.4777C120.391 49.4777 120.461 49.4542 120.532 49.4307C120.603 49.4071 120.65 49.3601 120.697 49.313C120.744 49.266 120.791 49.1954 120.814 49.1248C120.838 49.0542 120.861 48.9836 120.861 48.8895V47.5011H120.885Z" fill="#4A4A49"/>
<path d="M124.39 48.8892C124.39 49.1951 124.32 49.4304 124.155 49.5951C123.99 49.7598 123.778 49.8304 123.52 49.8304H122.531V46.5596H123.473C123.778 46.5596 123.99 46.6302 124.131 46.7949C124.273 46.9596 124.343 47.1479 124.343 47.4302C124.343 47.5714 124.32 47.7126 124.249 47.8303C124.202 47.9479 124.084 48.042 123.92 48.1362V48.1597C124.014 48.1832 124.084 48.2068 124.131 48.2774C124.202 48.3244 124.249 48.395 124.273 48.4421C124.32 48.5127 124.343 48.5833 124.343 48.6774C124.39 48.7009 124.39 48.795 124.39 48.8892ZM122.908 46.9125V47.9479H123.425C123.614 47.9479 123.755 47.9009 123.825 47.8067C123.92 47.7126 123.943 47.5714 123.943 47.4302C123.943 47.2655 123.896 47.1479 123.825 47.0537C123.731 46.9596 123.614 46.9125 123.425 46.9125H122.908ZM122.908 48.3009V49.4539H123.473C123.567 49.4539 123.661 49.4304 123.731 49.4069C123.802 49.3833 123.849 49.3363 123.896 49.2892C123.943 49.2421 123.967 49.1716 123.99 49.101C124.014 49.0304 124.014 48.9598 124.014 48.8656C124.014 48.7009 123.967 48.5597 123.896 48.4656C123.825 48.3715 123.684 48.3009 123.473 48.3009H122.908Z" fill="#4A4A49"/>
<path d="M127.168 49.8069L126.956 49.0774H125.92L125.709 49.8069H125.309L126.25 46.5596H126.603L127.544 49.8069H127.168ZM126.65 47.8773L126.462 47.1479H126.438L126.25 47.8538L126.015 48.7009H126.885L126.65 47.8773Z" fill="#4A4A49"/>
<path d="M130.061 48.3726H129.661C129.614 48.3726 129.543 48.3726 129.496 48.3961C129.449 48.4196 129.379 48.4431 129.332 48.4667C129.285 48.5137 129.238 48.5608 129.191 48.6314C129.143 48.702 129.12 48.7961 129.073 48.8902L128.861 49.808H128.438L128.673 48.8196C128.696 48.6785 128.743 48.5608 128.814 48.4667C128.861 48.3726 128.955 48.302 129.049 48.2549C128.955 48.2314 128.861 48.1843 128.814 48.1372C128.743 48.0902 128.696 48.0196 128.673 47.949C128.626 47.8784 128.602 47.8078 128.602 47.7372C128.579 47.6666 128.579 47.5725 128.579 47.5019C128.579 47.3607 128.602 47.2195 128.649 47.1019C128.696 46.9842 128.743 46.8901 128.814 46.796C128.885 46.7018 128.979 46.6548 129.096 46.6077C129.214 46.5606 129.332 46.5371 129.473 46.5371H130.438V49.7844H130.061V48.3726ZM128.979 47.5019C128.979 47.6901 129.026 47.8078 129.12 47.9019C129.214 47.9961 129.355 48.0196 129.52 48.0196H130.038V46.9136H129.52C129.332 46.9136 129.191 46.9607 129.096 47.0783C129.026 47.1725 128.979 47.3372 128.979 47.5019Z" fill="#4A4A49"/>
<path d="M133.426 49.808V46.5606H133.826V47.9725H134.179C134.226 47.9725 134.273 47.9725 134.344 47.949C134.391 47.949 134.438 47.9255 134.508 47.8784C134.555 47.8549 134.602 47.8078 134.649 47.7372C134.696 47.6666 134.72 47.596 134.767 47.4784L135.026 46.5371H135.402L135.144 47.5019C135.097 47.6666 135.049 47.7843 134.979 47.9019C134.908 48.0196 134.814 48.0902 134.72 48.1137C134.861 48.1608 134.955 48.2314 135.026 48.349C135.097 48.4667 135.144 48.6079 135.191 48.7491L135.473 49.7844H135.073L134.814 48.7961C134.791 48.6785 134.744 48.6079 134.72 48.5373C134.673 48.4667 134.626 48.4196 134.579 48.3726C134.532 48.3255 134.485 48.302 134.414 48.302C134.367 48.302 134.296 48.2784 134.249 48.2784H133.873V49.7609" fill="#4A4A49"/>
<path d="M138.32 48.8659C138.32 49.0071 138.297 49.1483 138.25 49.266C138.202 49.3836 138.132 49.4777 138.061 49.5719C137.967 49.666 137.873 49.7366 137.755 49.7601C137.638 49.8072 137.52 49.8307 137.379 49.8307C137.214 49.8307 137.049 49.8072 136.932 49.7366C136.814 49.6895 136.72 49.5954 136.626 49.5013C136.555 49.4071 136.485 49.2895 136.461 49.1718C136.438 49.0542 136.414 48.913 136.414 48.7718V47.454C136.414 47.3364 136.438 47.2423 136.461 47.1246C136.485 47.0069 136.555 46.9128 136.626 46.8187C136.696 46.7246 136.791 46.654 136.932 46.5834C137.049 46.5363 137.191 46.4893 137.379 46.4893C137.544 46.4893 137.685 46.5128 137.802 46.5834C137.92 46.6304 138.014 46.7246 138.108 46.7952C138.179 46.8893 138.25 46.9834 138.273 47.1011C138.32 47.2187 138.32 47.3364 138.32 47.454V48.8659ZM137.92 47.5011C137.92 47.454 137.92 47.3834 137.897 47.3129C137.873 47.2423 137.849 47.1717 137.802 47.1246C137.755 47.054 137.708 47.0069 137.638 46.9599C137.567 46.9128 137.473 46.8893 137.355 46.8893C137.238 46.8893 137.144 46.9128 137.073 46.9599C137.002 47.0069 136.955 47.054 136.908 47.1246C136.861 47.1952 136.838 47.2423 136.814 47.3364C136.791 47.407 136.791 47.4776 136.791 47.5246V48.8189C136.791 48.913 136.791 49.0071 136.814 49.0777C136.838 49.1718 136.861 49.2424 136.908 49.2895C136.955 49.3601 137.026 49.4071 137.096 49.4307C137.167 49.4542 137.261 49.4777 137.355 49.4777C137.426 49.4777 137.497 49.4542 137.567 49.4307C137.638 49.4071 137.685 49.3601 137.732 49.313C137.779 49.266 137.826 49.1954 137.849 49.1248C137.873 49.0542 137.897 48.9836 137.897 48.8895V47.5011H137.92Z" fill="#4A4A49"/>
<path d="M141.641 49.8069V47.5479H141.618L141.359 48.1597L140.912 49.1716H140.653L140.206 48.1597L139.947 47.5479H139.923V49.8069H139.547V46.5596H139.947L140.465 47.7832L140.794 48.5362L141.123 47.7832L141.641 46.5596H142.041V49.8069" fill="#4A4A49"/>
<path d="M144.791 49.8069V46.889H143.709V49.8069H143.332V46.5596H145.167V49.8069" fill="#4A4A49"/>
<path d="M148.062 49.8069L147.85 49.0774H146.838L146.627 49.8069H146.227L147.168 46.5596H147.521L148.462 49.8069H148.062ZM147.544 47.8773L147.356 47.1479H147.333L147.144 47.8538L146.909 48.7009H147.78L147.544 47.8773Z" fill="#4A4A49"/>
<path d="M151.029 49.8069V48.3244H149.923V49.8069H149.523V46.5596H149.923V47.995H151.029V46.5596H151.406V49.8069" fill="#4A4A49"/>
<path d="M152.723 49.8069V46.5596H153.123V49.0304L153.617 48.0656L154.393 46.5596H154.77V49.8069H154.37V47.3361L153.899 48.2303L153.099 49.8069" fill="#4A4A49"/>
<path d="M157.499 48.3726H157.122C157.075 48.3726 157.004 48.3726 156.957 48.3961C156.91 48.4196 156.84 48.4431 156.793 48.4667C156.746 48.5137 156.699 48.5608 156.651 48.6314C156.604 48.702 156.581 48.7961 156.534 48.8902L156.322 49.808H155.898L156.134 48.8196C156.157 48.6785 156.204 48.5608 156.275 48.4667C156.322 48.3726 156.416 48.302 156.51 48.2549C156.416 48.2314 156.322 48.1843 156.275 48.1372C156.204 48.0902 156.157 48.0196 156.134 47.949C156.087 47.8784 156.063 47.8078 156.063 47.7372C156.04 47.6666 156.04 47.5725 156.04 47.5019C156.04 47.3607 156.063 47.2195 156.11 47.1019C156.157 46.9842 156.204 46.8901 156.275 46.796C156.346 46.7018 156.44 46.6548 156.557 46.6077C156.675 46.5606 156.793 46.5371 156.934 46.5371H157.899V49.7844H157.522L157.499 48.3726ZM156.416 47.5019C156.416 47.6901 156.463 47.8078 156.557 47.9019C156.651 47.9961 156.793 48.0196 156.957 48.0196H157.475V46.9136H156.957C156.769 46.9136 156.628 46.9607 156.534 47.0783C156.463 47.1725 156.416 47.3372 156.416 47.5019Z" fill="#4A4A49"/>
<path d="M132.321 39.6654C128.438 39.6654 126.273 37.6417 126.273 32.3471C126.273 27.2173 128.509 24.8877 132.321 24.8877C136.157 24.8877 138.369 26.9585 138.369 32.2765C138.345 37.524 136.11 39.6654 132.321 39.6654ZM132.297 27.6409C130.486 27.6409 129.827 28.2997 129.827 32.3001C129.827 36.2063 130.486 36.9357 132.321 36.9357C134.133 36.9357 134.815 36.2298 134.815 32.3001C134.792 28.2997 134.015 27.6409 132.297 27.6409Z" fill="#4A4A49"/>
<path d="M75.1158 39.7591C73.8686 39.7591 72.1508 39.3591 70.5742 38.7943L71.3508 35.9941C72.9509 36.5824 74.7157 36.9354 75.5864 36.9354C76.7394 36.9354 77.163 36.3 77.163 35.5C77.163 34.5116 76.3629 33.8998 75.0216 33.8998H72.1038V30.7937H75.257C76.1982 30.7937 77.1159 30.1819 77.1159 29.123C77.1159 28.2052 76.6453 27.7817 75.5864 27.7817C74.7628 27.7817 73.2333 27.9935 71.7743 28.417L71.0684 25.5933C72.8568 25.0991 74.3628 24.9814 75.5629 24.9814C78.6455 24.9814 80.4103 26.6051 80.4103 29.4053C80.4103 30.9113 79.822 31.5938 78.2219 32.0409V32.2526C79.7985 32.5821 80.7633 33.7586 80.7633 35.4058C80.7633 38.4178 78.5278 39.7591 75.1158 39.7591Z" fill="#4A4A49"/>
<path d="M91.6357 25.0762H87.0942L83.0703 39.4774H86.4353L87.306 36.0653H91.2592L92.1064 39.4774H95.5419L91.6357 25.0762ZM87.9178 33.4533L88.9532 29.5236C89.1179 28.8412 89.212 28.2294 89.2355 27.6411C89.2355 27.594 89.2826 27.547 89.3297 27.547C89.3767 27.547 89.4238 27.594 89.4238 27.6411C89.4473 28.2294 89.4944 28.8647 89.6826 29.5471L90.6709 33.4533H87.9178Z" fill="#4A4A49"/>
<path d="M106.202 32.1356C106.155 32.1356 106.108 32.0885 106.108 32.0415C106.108 31.9944 106.155 31.9473 106.202 31.9473C107.802 31.4767 108.367 30.1119 108.367 28.7706C108.367 26.0174 106.578 25.0762 103.519 25.0762H98.7188V39.4774H103.872C106.814 39.4774 108.884 38.4655 108.884 35.4064C108.884 33.6181 107.99 32.5121 106.202 32.1356ZM101.966 27.6646H103.496C104.625 27.6646 105.072 28.1823 105.072 29.2648C105.072 30.606 104.602 31.0767 103.637 31.0767H101.966V27.6646ZM103.778 36.8654H101.966V33.3827H103.825C104.837 33.3827 105.449 33.8298 105.449 35.1005C105.472 36.3242 105.072 36.8654 103.778 36.8654Z" fill="#4A4A49"/>
<path d="M116.107 31.665C116.107 31.712 116.154 31.7591 116.201 31.7591C116.248 31.7591 116.296 31.712 116.296 31.665C116.531 31.0296 116.813 30.4178 117.213 29.853L120.461 25.0762H123.943V25.2644L119.872 30.7237L122.625 36.0653C122.814 36.4889 122.931 36.583 123.378 36.583C123.543 36.583 123.684 36.5595 123.802 36.5359V39.4774C123.331 39.5244 122.955 39.5715 122.578 39.5715C121.237 39.5715 120.625 39.2656 119.755 37.5007L117.802 33.6886L116.084 36.0183V39.4774H112.719V25.0762H116.084L116.107 31.665Z" fill="#4A4A49"/>
<path d="M149.852 35.83C149.852 35.8771 149.899 35.9241 149.946 35.9241C149.993 35.9241 150.04 35.8771 150.04 35.83C150.064 35.3123 150.158 34.4652 150.322 33.9004L152.723 25.0762H156.794L157.735 39.4538H154.534L154.158 31.359C154.134 31.0061 154.134 30.4649 154.134 29.8766C154.134 29.8295 154.087 29.7824 154.04 29.7824C153.993 29.7824 153.946 29.8295 153.946 29.8766C153.899 30.3001 153.829 30.8178 153.664 31.359L151.475 39.4774H148.158L145.851 31.3826C145.734 30.959 145.64 30.4178 145.593 29.9001C145.593 29.853 145.546 29.806 145.498 29.806C145.451 29.806 145.404 29.853 145.404 29.9001C145.404 30.3943 145.404 30.8884 145.381 31.3826L144.957 39.4774H141.969L142.934 25.0997H146.981L149.546 33.924C149.711 34.4887 149.852 35.3358 149.852 35.83Z" fill="#4A4A49"/>
</g>
<defs>
<filter id="filter0_d" x="0" y="0" width="196" height="104.407" filterUnits="userSpaceOnUse" color-interpolation-filters="sRGB">
<feFlood flood-opacity="0" result="BackgroundImageFix"/>
<feColorMatrix in="SourceAlpha" type="matrix" values="0 0 0 0 0 0 0 0 0 0 0 0 0 0 0 0 0 0 127 0"/>
<feOffset dy="10"/>
<feGaussianBlur stdDeviation="10"/>
<feColorMatrix type="matrix" values="0 0 0 0 0 0 0 0 0 0 0 0 0 0 0 0 0 0 0.25 0"/>
<feBlend mode="normal" in2="BackgroundImageFix" result="effect1_dropShadow"/>
<feBlend mode="normal" in="SourceGraphic" in2="effect1_dropShadow" result="shape"/>
</filter>
<clipPath id="clip0">
<rect width="119.751" height="25.5786" fill="white" transform="translate(38.125 24.8877)"/>
</clipPath>
</defs>
</svg>
