<svg version="1.1" xmlns="http://www.w3.org/2000/svg" xmlns:xlink="http://www.w3.org/1999/xlink" x="0px" y="0px"
	 viewBox="0 0 150 32" enable-background="new 0 0 150 32" xml:space="preserve">
<path fill="#333333" d="M118.7,18.9c-4.8,0-7.4-2.6-7.4-9.4c0-6.6,2.7-9.5,7.4-9.5c4.7,0,7.4,2.6,7.4,9.5
	C126.2,16.2,123.4,18.9,118.7,18.9z M118.7,3.5c-2.2,0-3,0.8-3,6c0,5,0.8,5.9,3.1,5.9c2.2,0,3.1-0.9,3.1-5.9
	C121.8,4.4,120.8,3.5,118.7,3.5z"/>
<path fill="#333333" d="M48.4,19c-1.5,0-3.6-0.5-5.6-1.2l1-3.6c2,0.8,4.1,1.2,5.2,1.2c1.4,0,1.9-0.8,1.9-1.8c0-1.3-1-2-2.6-2h-3.6
	v-4h3.9c1.2,0,2.3-0.8,2.3-2.1c0-1.2-0.6-1.7-1.9-1.7c-1,0-2.9,0.3-4.7,0.8l-0.9-3.6c2.2-0.6,4.1-0.8,5.5-0.8c3.8,0,6,2.1,6,5.7
	c0,1.9-0.7,2.8-2.7,3.4v0.3c1.9,0.4,3.1,1.9,3.1,4C55.3,17.3,52.6,19,48.4,19z"/>
<path fill="#333333" d="M68.7,0.2h-5.6l-4.9,18.4h4.1l1.1-4.4h4.9l1,4.4h4.2L68.7,0.2z M64.1,11l1.3-5c0.2-0.9,0.3-1.7,0.3-2.4
	c0-0.1,0.1-0.1,0.1-0.1c0.1,0,0.1,0.1,0.1,0.1c0,0.8,0.1,1.6,0.3,2.4l1.2,5H64.1z"/>
<path fill="#333333" d="M86.6,9.3c-0.1,0-0.1-0.1-0.1-0.1S86.6,9,86.6,9c2-0.6,2.7-2.3,2.7-4.1c0-3.5-2.2-4.7-6-4.7h-5.9v18.4h6.3
	c3.6,0,6.2-1.3,6.2-5.2C89.9,11.2,88.8,9.8,86.6,9.3z M81.4,3.6h1.9c1.4,0,1.9,0.7,1.9,2c0,1.7-0.6,2.3-1.8,2.3h-2.1V3.6z
	 M83.6,15.3h-2.2v-4.5h2.3c1.2,0,2,0.6,2,2.2C85.7,14.6,85.2,15.3,83.6,15.3z"/>
<path fill="#333333" d="M98.8,8.7c0,0.1,0.1,0.1,0.1,0.1S99,8.7,99,8.7c0.3-0.8,0.6-1.6,1.1-2.3l4-6.1h4.3v0.2l-5,7l3.4,6.8
	c0.2,0.5,0.4,0.7,0.9,0.7c0.2,0,0.4,0,0.5-0.1v3.8c-0.6,0.1-1,0.1-1.5,0.1c-1.6,0-2.4-0.4-3.5-2.6l-2.4-4.9l-2.1,3v4.4h-4.1V0.2h4.1
	L98.8,8.7z"/>
<path fill="#333333" d="M140.3,14c0,0.1,0.1,0.1,0.1,0.1s0.1-0.1,0.1-0.1c0-0.7,0.1-1.7,0.3-2.5l3-11.3h5l1.2,18.4h-3.9l-0.5-10.4
	c0-0.5,0-1.1,0-1.9c0-0.1-0.1-0.1-0.1-0.1s-0.1,0.1-0.1,0.1c-0.1,0.5-0.1,1.2-0.3,1.9l-2.7,10.4h-4.1l-2.8-10.4
	c-0.1-0.5-0.3-1.2-0.3-1.9c0-0.1-0.1-0.1-0.1-0.1s-0.1,0.1-0.1,0.1c0,0.6,0,1.3,0,1.9l-0.5,10.4h-3.7l1.2-18.4h5l3.2,11.3
	C140.1,12.3,140.3,13.4,140.3,14z"/>
<path fill="#333333" d="M1.9,30.8V27H0.5v3.8H0v-4.2h2.3v4.2"/>
<path fill="#333333" d="M6.3,27.9c0,0.2,0,0.3-0.1,0.5c0,0.2-0.1,0.3-0.2,0.4C6,28.8,5.9,28.9,5.7,29c-0.1,0.1-0.3,0.1-0.5,0.1H4.5
	v1.7H4v-4.2h1.1c0.4,0,0.7,0.1,0.9,0.3C6.2,27.1,6.3,27.4,6.3,27.9z M5.8,27.9c0-0.2-0.1-0.4-0.2-0.6c-0.1-0.2-0.3-0.2-0.5-0.2H4.5
	v1.6h0.7c0.1,0,0.2,0,0.4-0.1c0.1,0,0.2-0.1,0.2-0.2c0.1-0.1,0.1-0.2,0.1-0.2C5.8,28.1,5.8,28,5.8,27.9z"/>
<path fill="#333333" d="M10,29.6c0,0.2,0,0.4-0.1,0.5c-0.1,0.2-0.1,0.3-0.2,0.4c-0.1,0.1-0.2,0.2-0.4,0.2c-0.1,0.1-0.3,0.1-0.5,0.1
	c-0.2,0-0.4,0-0.6-0.1c-0.1-0.1-0.3-0.2-0.4-0.3c-0.1-0.1-0.2-0.3-0.2-0.4c0-0.2-0.1-0.3-0.1-0.5v-1.7c0-0.2,0-0.3,0.1-0.4
	c0-0.2,0.1-0.3,0.2-0.4c0.1-0.1,0.2-0.2,0.4-0.3c0.1-0.1,0.3-0.1,0.6-0.1c0.2,0,0.4,0,0.5,0.1c0.1,0.1,0.3,0.2,0.4,0.3
	c0.1,0.1,0.2,0.2,0.2,0.4c0.1,0.2,0.1,0.3,0.1,0.5V29.6z M9.5,27.8c0-0.1,0-0.2,0-0.2c0-0.1-0.1-0.2-0.1-0.2
	c-0.1-0.1-0.1-0.2-0.2-0.2C9,27.1,8.9,27,8.8,27c-0.1,0-0.3,0-0.4,0.1c-0.1,0.1-0.2,0.1-0.2,0.2c-0.1,0.1-0.1,0.2-0.1,0.3
	c0,0.1,0,0.2,0,0.2v1.7c0,0.1,0,0.2,0,0.3c0,0.1,0.1,0.2,0.1,0.3c0.1,0.1,0.1,0.2,0.2,0.2c0.1,0,0.2,0.1,0.3,0.1
	c0.1,0,0.2,0,0.3-0.1c0.1,0,0.1-0.1,0.2-0.2c0.1-0.1,0.1-0.2,0.1-0.2c0-0.1,0.1-0.2,0.1-0.3L9.5,27.8L9.5,27.8z"/>
<path fill="#333333" d="M11.5,30.8v-4.2H12v3.2h0l0.6-1.3l1-2H14v4.2h-0.5v-3.2h0L13,28.8l-1,2.1"/>
<path fill="#333333" d="M16.5,30.9c-0.1,0-0.3,0-0.4-0.1c-0.1,0-0.3-0.1-0.4-0.2c-0.1-0.1-0.2-0.2-0.3-0.3c-0.1-0.1-0.1-0.2-0.1-0.4
	l0.5-0.2c0,0.2,0.1,0.4,0.3,0.5c0.1,0.1,0.3,0.2,0.5,0.2c0.2,0,0.4-0.1,0.5-0.2c0.1-0.1,0.2-0.3,0.2-0.6c0-0.2-0.1-0.4-0.1-0.6
	c-0.1-0.2-0.3-0.2-0.5-0.2h-0.4v-0.5h0.4c0.2,0,0.4-0.1,0.4-0.2c0.1-0.1,0.1-0.3,0.1-0.5s-0.1-0.4-0.2-0.5c-0.1-0.1-0.3-0.2-0.5-0.2
	c-0.2,0-0.4,0.1-0.5,0.2c-0.1,0.1-0.2,0.2-0.2,0.4l-0.4-0.2c0.1-0.3,0.2-0.5,0.4-0.7c0.2-0.2,0.5-0.2,0.8-0.2c0.4,0,0.6,0.1,0.9,0.3
	c0.2,0.2,0.3,0.5,0.3,0.8c0,0.1,0,0.2,0,0.2c0,0.1,0,0.2-0.1,0.3c0,0.1-0.1,0.2-0.1,0.2c-0.1,0.1-0.1,0.1-0.2,0.2v0
	c0.1,0.1,0.2,0.1,0.3,0.2c0.1,0.1,0.1,0.2,0.1,0.2c0,0.1,0.1,0.2,0.1,0.3c0,0.1,0,0.2,0,0.3c0,0.4-0.1,0.7-0.3,0.9
	C17.2,30.8,16.9,30.9,16.5,30.9z"/>
<path fill="#333333" d="M21.6,29.6c0,0.4-0.1,0.7-0.3,0.9c-0.2,0.2-0.5,0.3-0.8,0.3h-1.2v-4.3h1.2c0.4,0,0.6,0.1,0.8,0.3
	c0.2,0.2,0.3,0.5,0.3,0.8c0,0.2,0,0.4-0.1,0.5c-0.1,0.2-0.2,0.3-0.4,0.4v0c0.1,0,0.2,0.1,0.3,0.2c0.1,0.1,0.1,0.2,0.2,0.2
	c0.1,0.1,0.1,0.2,0.1,0.3C21.6,29.4,21.6,29.5,21.6,29.6z M19.8,27.1v1.3h0.6c0.2,0,0.4-0.1,0.5-0.2c0.1-0.1,0.1-0.3,0.1-0.5
	c0-0.2-0.1-0.4-0.1-0.5c-0.1-0.1-0.3-0.2-0.5-0.2H19.8z M19.8,28.9v1.5h0.7c0.1,0,0.2,0,0.3-0.1c0.1,0,0.1-0.1,0.2-0.2
	c0.1-0.1,0.1-0.2,0.1-0.2c0-0.1,0-0.2,0-0.3c0-0.2-0.1-0.4-0.1-0.5c-0.1-0.1-0.3-0.2-0.5-0.2H19.8z"/>
<path fill="#333333" d="M25.4,29.6c0,0.2,0,0.4-0.1,0.5c-0.1,0.2-0.1,0.3-0.2,0.4c-0.1,0.1-0.2,0.2-0.4,0.2
	c-0.1,0.1-0.3,0.1-0.5,0.1c-0.2,0-0.4,0-0.6-0.1c-0.1-0.1-0.3-0.2-0.4-0.3c-0.1-0.1-0.2-0.3-0.2-0.4C23,29.9,23,29.7,23,29.5v-1.7
	c0-0.2,0-0.3,0.1-0.4c0-0.2,0.1-0.3,0.2-0.4c0.1-0.1,0.2-0.2,0.4-0.3c0.1-0.1,0.3-0.1,0.6-0.1c0.2,0,0.4,0,0.5,0.1
	c0.1,0.1,0.3,0.2,0.4,0.3c0.1,0.1,0.2,0.2,0.2,0.4c0.1,0.2,0.1,0.3,0.1,0.5V29.6z M24.9,27.8c0-0.1,0-0.2,0-0.2
	c0-0.1-0.1-0.2-0.1-0.2c-0.1-0.1-0.1-0.2-0.2-0.2c-0.1-0.1-0.2-0.1-0.4-0.1c-0.1,0-0.3,0-0.4,0.1c-0.1,0.1-0.1,0.1-0.2,0.2
	c-0.1,0.1-0.1,0.2-0.1,0.2c0,0.1,0,0.2,0,0.2v1.7c0,0.1,0,0.2,0,0.3c0,0.1,0.1,0.2,0.1,0.3c0.1,0.1,0.1,0.2,0.2,0.2
	c0.1,0,0.2,0.1,0.3,0.1c0.1,0,0.2,0,0.3-0.1c0.1,0,0.1-0.1,0.2-0.2c0.1-0.1,0.1-0.2,0.1-0.2c0-0.1,0.1-0.2,0.1-0.3L24.9,27.8
	L24.9,27.8z"/>
<path fill="#333333" d="M27.1,31.7h-0.4v-1.3l0.2-0.1c0.1-0.1,0.1-0.2,0.2-0.2c0.1-0.1,0.1-0.2,0.1-0.4c0-0.2,0.1-0.4,0.1-0.6
	c0-0.2,0-0.5,0-0.9l0.1-1.7h2.2c0,0.6,0,1.3,0,1.9c0,0.6,0,1.3,0,1.9h0.3v1.3h-0.5v-0.9h-2.3L27.1,31.7z M29,30.4V27h-1.2l-0.1,1.4
	c0,0.5,0,0.9-0.1,1.2c0,0.3-0.1,0.6-0.2,0.7L29,30.4L29,30.4z"/>
<path fill="#333333" d="M33.5,30.1c-0.1,0.3-0.2,0.5-0.4,0.6c-0.2,0.2-0.4,0.2-0.7,0.2c-0.2,0-0.4,0-0.5-0.1
	c-0.1-0.1-0.3-0.2-0.4-0.3c-0.1-0.1-0.2-0.2-0.2-0.4c-0.1-0.2-0.1-0.3-0.1-0.5v-1.8c0-0.2,0-0.3,0.1-0.5c0.1-0.2,0.1-0.3,0.2-0.4
	c0.1-0.1,0.2-0.2,0.4-0.3c0.1-0.1,0.3-0.1,0.5-0.1c0.3,0,0.5,0.1,0.7,0.2c0.2,0.2,0.4,0.3,0.4,0.6L33,27.6c0-0.2-0.1-0.3-0.2-0.4
	c-0.1-0.1-0.3-0.2-0.4-0.2c-0.1,0-0.2,0-0.3,0.1c-0.1,0-0.1,0.1-0.2,0.2c-0.1,0.1-0.1,0.2-0.1,0.2c0,0.1-0.1,0.2-0.1,0.3v1.8
	c0,0.1,0,0.2,0.1,0.3c0,0.1,0.1,0.2,0.1,0.2c0.1,0.1,0.1,0.1,0.2,0.2c0.1,0,0.2,0.1,0.3,0.1c0.2,0,0.3-0.1,0.4-0.2
	c0.1-0.1,0.2-0.2,0.2-0.4"/>
<path fill="#333333" d="M35.9,27.1v3.8h-0.5v-3.8h-0.9v-0.5h2.3v0.5"/>
<path fill="#333333" d="M40.4,29.6c0,0.4-0.1,0.7-0.3,0.9c-0.2,0.2-0.5,0.3-0.8,0.3h-1.2v-4.3h1.2c0.4,0,0.6,0.1,0.8,0.3
	c0.2,0.2,0.3,0.5,0.3,0.8c0,0.2,0,0.4-0.1,0.5c-0.1,0.2-0.2,0.3-0.4,0.4v0c0.1,0,0.2,0.1,0.3,0.2c0.1,0.1,0.1,0.2,0.2,0.2
	c0.1,0.1,0.1,0.2,0.1,0.3C40.4,29.4,40.4,29.5,40.4,29.6z M38.6,27.1v1.3h0.6c0.2,0,0.4-0.1,0.5-0.2c0.1-0.1,0.1-0.3,0.1-0.5
	c0-0.2-0.1-0.4-0.1-0.5c-0.1-0.1-0.3-0.2-0.5-0.2H38.6z M38.6,28.9v1.5h0.7c0.1,0,0.2,0,0.3-0.1c0.1,0,0.1-0.1,0.2-0.2
	c0.1-0.1,0.1-0.2,0.1-0.2c0-0.1,0-0.2,0-0.3c0-0.2-0.1-0.4-0.1-0.5c-0.1-0.1-0.3-0.2-0.5-0.2H38.6z"/>
<path fill="#333333" d="M42,30.8v-4.2h2.1v0.5h-1.7v1.4h1.4v0.5h-1.4v1.4h1.7v0.5"/>
<path fill="#333333" d="M47.4,30.8v-1.9H46v1.9h-0.5v-4.2H46v1.9h1.4v-1.9h0.5v4.2"/>
<path fill="#333333" d="M51.4,30.8v-1.9H50v1.9h-0.5v-4.2H50v1.9h1.4v-1.9h0.5v4.2"/>
<path fill="#333333" d="M55.8,29.6c0,0.2,0,0.4-0.1,0.5c-0.1,0.2-0.1,0.3-0.2,0.4c-0.1,0.1-0.2,0.2-0.4,0.2
	c-0.1,0.1-0.3,0.1-0.5,0.1c-0.2,0-0.4,0-0.6-0.1c-0.1-0.1-0.3-0.2-0.4-0.3c-0.1-0.1-0.2-0.3-0.2-0.4c0-0.2-0.1-0.3-0.1-0.5v-1.7
	c0-0.2,0-0.3,0.1-0.4c0-0.2,0.1-0.3,0.2-0.4c0.1-0.1,0.2-0.2,0.4-0.3c0.1-0.1,0.3-0.1,0.6-0.1c0.2,0,0.4,0,0.5,0.1
	c0.1,0.1,0.3,0.2,0.4,0.3c0.1,0.1,0.2,0.2,0.2,0.4c0.1,0.2,0.1,0.3,0.1,0.5V29.6z M55.3,27.8c0-0.1,0-0.2,0-0.2
	c0-0.1-0.1-0.2-0.1-0.2c-0.1-0.1-0.1-0.2-0.2-0.2c-0.1-0.1-0.2-0.1-0.4-0.1c-0.1,0-0.3,0-0.4,0.1c-0.1,0.1-0.1,0.1-0.2,0.2
	c-0.1,0.1-0.1,0.2-0.1,0.3c0,0.1,0,0.2,0,0.2v1.7c0,0.1,0,0.2,0,0.3c0,0.1,0.1,0.2,0.1,0.3c0.1,0.1,0.1,0.2,0.2,0.2
	c0.1,0,0.2,0.1,0.3,0.1c0.1,0,0.2,0,0.3-0.1c0.1,0,0.1-0.1,0.2-0.2c0.1-0.1,0.1-0.2,0.1-0.2c0-0.1,0.1-0.2,0.1-0.3L55.3,27.8
	L55.3,27.8z"/>
<path fill="#333333" d="M58.8,29.1h-1.6v0.4h1.6V29.1z"/>
<path fill="#333333" d="M60.4,30.8v-4.2h0.5v3.2h0l0.6-1.3l1-2h0.5v4.2h-0.5v-3.2h0l-0.6,1.2l-1,2.1"/>
<path fill="#333333" d="M66.4,30.8v-1.9H65v1.9h-0.5v-4.2H65v1.9h1.4v-1.9h0.5v4.2"/>
<path fill="#333333" d="M70.2,26.6h0.5v1.9h0.4c0.1,0,0.1,0,0.2,0c0.1,0,0.1,0,0.2-0.1c0.1,0,0.1-0.1,0.2-0.2
	c0.1-0.1,0.1-0.2,0.1-0.3l0.3-1.2h0.5l-0.3,1.3c-0.1,0.2-0.1,0.4-0.2,0.5c-0.1,0.2-0.2,0.2-0.3,0.3c0.2,0.1,0.3,0.2,0.4,0.3
	c0.1,0.2,0.1,0.3,0.2,0.5l0.4,1.3h-0.5l-0.3-1.3c0-0.2-0.1-0.2-0.1-0.3c-0.1-0.1-0.1-0.2-0.2-0.2c-0.1-0.1-0.1-0.1-0.2-0.1
	c-0.1,0-0.1,0-0.2,0h-0.4v1.9h-0.5v-1.9h-0.4c-0.1,0-0.1,0-0.2,0c-0.1,0-0.1,0.1-0.2,0.1c-0.1,0.1-0.1,0.1-0.2,0.2
	c-0.1,0.1-0.1,0.2-0.1,0.3l-0.3,1.3h-0.5l0.4-1.3c0.1-0.2,0.1-0.4,0.2-0.5c0.1-0.2,0.2-0.2,0.4-0.3c-0.1,0-0.3-0.1-0.3-0.3
	c-0.1-0.2-0.1-0.3-0.2-0.5l-0.3-1.3h0.5l0.3,1.2c0,0.2,0.1,0.2,0.1,0.3c0.1,0.1,0.1,0.2,0.2,0.2c0.1,0,0.1,0.1,0.2,0.1
	c0.1,0,0.1,0,0.2,0h0.4"/>
<path fill="#333333" d="M74,30.8v-4.2h0.5v3.2h0l0.6-1.3l1-2h0.5v4.2h-0.5v-3.2h0l-0.6,1.2l-1,2.1"/>
<path fill="#333333" d="M80,30.8v-1.9h-1.4v1.9h-0.5v-4.2h0.5v1.9H80v-1.9h0.5v4.2"/>
<path fill="#333333" d="M82.2,30.8v-4.2h0.5v3.2h0l0.6-1.3l1-2h0.5v4.2h-0.5v-3.2h0l-0.6,1.2l-1,2.1"/>
<path fill="#333333" d="M88.7,27.9c0,0.2,0,0.3-0.1,0.5c0,0.2-0.1,0.3-0.2,0.4c-0.1,0.1-0.2,0.2-0.4,0.3c-0.1,0.1-0.3,0.1-0.5,0.1
	h-0.7v1.7h-0.5v-4.2h1.1c0.4,0,0.7,0.1,0.9,0.3S88.7,27.4,88.7,27.9z M88.2,27.9c0-0.2-0.1-0.4-0.2-0.6c-0.1-0.2-0.3-0.2-0.5-0.2
	h-0.6v1.6h0.7c0.1,0,0.2,0,0.4-0.1c0.1,0,0.1-0.1,0.2-0.2c0.1-0.1,0.1-0.2,0.1-0.2C88.2,28.1,88.2,28,88.2,27.9z"/>
<path fill="#333333" d="M90.1,30.8v-4.2h0.5v3.2h0l0.6-1.3l1-2h0.5v4.2h-0.5v-3.2l-0.6,1.2l-1,2.1"/>
<path fill="#333333" d="M96.1,30.8v-1.9h-1.4v1.9h-0.5v-4.2h0.5v1.9h1.4v-1.9h0.5v4.2"/>
<path fill="#333333" d="M98.8,27.1v3.8h-0.5v-4.2h2.1v0.5"/>
<path fill="#333333" d="M104,29.6c0,0.2,0,0.4-0.1,0.5c-0.1,0.2-0.1,0.3-0.2,0.4c-0.1,0.1-0.2,0.2-0.4,0.2c-0.1,0.1-0.3,0.1-0.5,0.1
	c-0.2,0-0.4,0-0.6-0.1c-0.1-0.1-0.3-0.2-0.4-0.3c-0.1-0.1-0.2-0.3-0.2-0.4c0-0.2-0.1-0.3-0.1-0.5v-1.7c0-0.2,0-0.3,0.1-0.4
	c0-0.2,0.1-0.3,0.2-0.4c0.1-0.1,0.2-0.2,0.4-0.3c0.1-0.1,0.3-0.1,0.6-0.1c0.2,0,0.4,0,0.5,0.1c0.1,0.1,0.3,0.2,0.4,0.3
	c0.1,0.1,0.2,0.2,0.2,0.4c0.1,0.2,0.1,0.3,0.1,0.5V29.6z M103.5,27.8c0-0.1,0-0.2,0-0.2c0-0.1-0.1-0.2-0.1-0.2
	c-0.1-0.1-0.1-0.2-0.2-0.2c-0.1-0.1-0.2-0.1-0.4-0.1c-0.1,0-0.3,0-0.4,0.1c-0.1,0.1-0.2,0.1-0.2,0.2c-0.1,0.1-0.1,0.2-0.1,0.3
	c0,0.1,0,0.2,0,0.2v1.7c0,0.1,0,0.2,0,0.3c0,0.1,0.1,0.2,0.1,0.3c0.1,0.1,0.1,0.2,0.2,0.2c0.1,0,0.2,0.1,0.3,0.1
	c0.1,0,0.2,0,0.3-0.1c0.1,0,0.1-0.1,0.2-0.2c0.1-0.1,0.1-0.2,0.1-0.2c0-0.1,0.1-0.2,0.1-0.3L103.5,27.8L103.5,27.8z"/>
<path fill="#333333" d="M107.9,29.6c0,0.4-0.1,0.7-0.3,0.9c-0.2,0.2-0.5,0.3-0.8,0.3h-1.2v-4.3h1.2c0.4,0,0.6,0.1,0.8,0.3
	c0.2,0.2,0.3,0.5,0.3,0.8c0,0.2,0,0.4-0.1,0.5c-0.1,0.2-0.2,0.3-0.4,0.4v0c0.1,0,0.2,0.1,0.3,0.2c0.1,0.1,0.1,0.2,0.2,0.2
	c0.1,0.1,0.1,0.2,0.1,0.3C107.9,29.4,107.9,29.5,107.9,29.6z M106,27.1v1.3h0.6c0.2,0,0.4-0.1,0.5-0.2c0.1-0.1,0.1-0.3,0.1-0.5
	c0-0.2-0.1-0.4-0.1-0.5c-0.1-0.1-0.3-0.2-0.5-0.2H106z M106,28.9v1.5h0.7c0.1,0,0.2,0,0.3-0.1c0.1,0,0.1-0.1,0.2-0.2
	c0.1-0.1,0.1-0.2,0.1-0.2c0-0.1,0-0.2,0-0.3c0-0.2-0.1-0.4-0.1-0.5c-0.1-0.1-0.3-0.2-0.5-0.2H106z"/>
<path fill="#333333" d="M111.4,30.8l-0.3-0.9h-1.3l-0.3,0.9H109l1.2-4.2h0.4l1.2,4.2H111.4z M110.7,28.3l-0.2-0.9h0l-0.2,0.9
	l-0.3,1.1h1.1L110.7,28.3z"/>
<path fill="#333333" d="M115,29h-0.5c-0.1,0-0.1,0-0.2,0c-0.1,0-0.1,0.1-0.2,0.1c-0.1,0.1-0.1,0.1-0.2,0.2c-0.1,0.1-0.1,0.2-0.1,0.3
	l-0.3,1.2h-0.5l0.3-1.3c0-0.2,0.1-0.3,0.2-0.5c0.1-0.1,0.2-0.2,0.3-0.3c-0.1,0-0.2-0.1-0.3-0.2c-0.1-0.1-0.1-0.2-0.2-0.2
	c-0.1-0.1-0.1-0.2-0.1-0.3c0-0.1,0-0.2,0-0.3c0-0.2,0-0.4,0.1-0.5c0.1-0.2,0.1-0.3,0.2-0.4c0.1-0.1,0.2-0.2,0.4-0.2
	c0.1-0.1,0.3-0.1,0.5-0.1h1.2v4.2H115V29z M113.6,27.8c0,0.2,0.1,0.4,0.2,0.5c0.1,0.1,0.3,0.2,0.5,0.2h0.6v-1.4h-0.6
	c-0.2,0-0.4,0.1-0.5,0.2C113.7,27.4,113.6,27.6,113.6,27.8z"/>
<path fill="#333333" d="M119.2,30.8v-4.2h0.5v1.8h0.4c0.1,0,0.1,0,0.2,0c0.1,0,0.1,0,0.2-0.1c0.1,0,0.1-0.1,0.2-0.2
	c0.1-0.1,0.1-0.2,0.1-0.3l0.3-1.2h0.5l-0.3,1.3c-0.1,0.2-0.1,0.4-0.2,0.5c-0.1,0.2-0.2,0.2-0.3,0.3c0.2,0.1,0.3,0.2,0.4,0.3
	c0.1,0.2,0.1,0.3,0.2,0.5l0.4,1.3h-0.5l-0.3-1.3c0-0.2-0.1-0.2-0.1-0.3c-0.1-0.1-0.1-0.2-0.2-0.2c-0.1-0.1-0.1-0.1-0.2-0.1
	c-0.1,0-0.1,0-0.2,0h-0.5v1.9"/>
<path fill="#333333" d="M125.3,29.6c0,0.2,0,0.4-0.1,0.5c-0.1,0.2-0.1,0.3-0.2,0.4c-0.1,0.1-0.2,0.2-0.4,0.2
	c-0.1,0.1-0.3,0.1-0.5,0.1c-0.2,0-0.4,0-0.6-0.1c-0.1-0.1-0.3-0.2-0.4-0.3c-0.1-0.1-0.2-0.3-0.2-0.4c0-0.2-0.1-0.3-0.1-0.5v-1.7
	c0-0.2,0-0.3,0.1-0.4c0-0.2,0.1-0.3,0.2-0.4c0.1-0.1,0.2-0.2,0.4-0.3c0.1-0.1,0.3-0.1,0.6-0.1c0.2,0,0.4,0,0.5,0.1
	c0.1,0.1,0.3,0.2,0.4,0.3c0.1,0.1,0.2,0.2,0.2,0.4c0.1,0.2,0.1,0.3,0.1,0.5V29.6z M124.8,27.8c0-0.1,0-0.2,0-0.2
	c0-0.1-0.1-0.2-0.1-0.2c-0.1-0.1-0.1-0.2-0.2-0.2c-0.1-0.1-0.2-0.1-0.4-0.1c-0.1,0-0.3,0-0.4,0.1c-0.1,0.1-0.1,0.1-0.2,0.2
	c-0.1,0.1-0.1,0.2-0.1,0.3c0,0.1,0,0.2,0,0.2v1.7c0,0.1,0,0.2,0,0.3c0,0.1,0.1,0.2,0.1,0.3c0.1,0.1,0.1,0.2,0.2,0.2
	c0.1,0,0.2,0.1,0.3,0.1c0.1,0,0.2,0,0.3-0.1c0.1,0,0.1-0.1,0.2-0.2c0.1-0.1,0.1-0.2,0.1-0.2c0-0.1,0.1-0.2,0.1-0.3L124.8,27.8
	L124.8,27.8z"/>
<path fill="#333333" d="M129.5,30.8v-2.9h0l-0.3,0.8l-0.6,1.3h-0.3l-0.6-1.3l-0.3-0.8h0v2.9h-0.5v-4.2h0.5l0.6,1.6l0.4,1l0.4-1
	l0.6-1.6h0.5v4.2"/>
<path fill="#333333" d="M133.4,30.8V27H132v3.8h-0.5v-4.2h2.3v4.2"/>
<path fill="#333333" d="M137.5,30.8l-0.3-0.9H136l-0.3,0.9h-0.5l1.2-4.2h0.4l1.2,4.2H137.5z M136.8,28.3l-0.2-0.9h0l-0.2,0.9
	l-0.3,1.1h1.1L136.8,28.3z"/>
<path fill="#333333" d="M141.2,30.8v-1.9h-1.4v1.9h-0.5v-4.2h0.5v1.9h1.4v-1.9h0.5v4.2"/>
<path fill="#333333" d="M143.3,30.8v-4.2h0.5v3.2l0.6-1.3l1-2h0.5v4.2h-0.5v-3.2l-0.6,1.2l-1,2.1"/>
<path fill="#333333" d="M149.3,29h-0.5c-0.1,0-0.1,0-0.2,0c-0.1,0-0.1,0.1-0.2,0.1c-0.1,0.1-0.1,0.1-0.2,0.2
	c-0.1,0.1-0.1,0.2-0.1,0.3l-0.3,1.2h-0.5l0.3-1.3c0-0.2,0.1-0.3,0.2-0.5c0.1-0.1,0.2-0.2,0.3-0.3c-0.1,0-0.2-0.1-0.3-0.2
	c-0.1-0.1-0.1-0.2-0.2-0.2c-0.1-0.1-0.1-0.2-0.1-0.3c0-0.1,0-0.2,0-0.3c0-0.2,0-0.4,0.1-0.5c0.1-0.2,0.1-0.3,0.2-0.4
	c0.1-0.1,0.2-0.2,0.4-0.2c0.1-0.1,0.3-0.1,0.5-0.1h1.2v4.2h-0.5L149.3,29z M147.9,27.8c0,0.2,0.1,0.4,0.2,0.5
	c0.1,0.1,0.3,0.2,0.5,0.2h0.6v-1.4h-0.6c-0.2,0-0.4,0.1-0.5,0.2C148,27.4,147.9,27.6,147.9,27.8z"/>
<path fill="#AD1923" d="M0,0.2h18.3L0,18.6V0.2z"/>
<path fill="#AD1923" d="M31.3,18.6H13L31.3,0.2V18.6z"/>
</svg>
